<svg id="Capa_1" enable-background="new 0 0 512 512" height="512" viewBox="0 0 512 512" width="512" xmlns="http://www.w3.org/2000/svg"><g><g><path d=""/></g><g><circle cx="181" cy="226" r="25"/><circle cx="341" cy="296" r="15"/><path d="m473.031 225.576c-16.403 4.101-31.871 7.968-32.376 8.094-2.44-20.3-8.174-39.598-16.63-57.359l30.794-17.779c7.174-4.142 9.632-13.315 5.49-20.49-4.142-7.174-13.314-9.635-20.49-5.49l-30.825 17.796c-11.405-16.467-25.394-31.013-41.382-43.044l23.252-24.048c14.182-14.667 10.804-38.758-6.865-48.959-17.669-10.201-40.222-1.079-45.833 18.537-4.652 16.264-9.04 31.601-9.181 32.094-18.049-7.73-37.558-12.682-57.987-14.321v-35.524c0-8.284-6.716-15-15-15s-15 6.716-15 15v35.523c-20.429 1.64-39.938 6.592-57.987 14.321l-9.181-32.096c-5.609-19.615-28.161-28.735-45.83-18.534-17.669 10.201-21.046 34.293-6.863 48.96 11.802 12.206 22.936 23.721 23.251 24.046-15.987 12.031-29.977 26.577-41.382 43.044l-30.825-17.796c-7.175-4.144-16.349-1.684-20.49 5.49-4.142 7.175-1.684 16.349 5.49 20.49l30.794 17.779c-8.456 17.761-14.19 37.059-16.63 57.359l-32.378-8.095c-19.793-4.947-38.967 10.023-38.967 30.426s19.176 35.373 38.969 30.424c16.403-4.101 31.871-7.968 32.376-8.094 2.44 20.3 8.174 39.598 16.63 57.359l-30.794 17.779c-7.174 4.142-9.632 13.315-5.49 20.49 2.778 4.812 7.82 7.503 13.004 7.503 2.544 0 5.124-.648 7.486-2.013l30.825-17.796c11.405 16.467 25.394 31.013 41.382 43.044l-23.252 24.048c-14.182 14.667-10.804 38.758 6.865 48.959 17.669 10.201 40.221 1.079 45.833-18.537 4.652-16.264 9.04-31.601 9.181-32.094 18.049 7.73 37.558 12.682 57.987 14.321v35.523c0 8.284 6.716 15 15 15s15-6.716 15-15v-35.523c20.429-1.64 39.938-6.592 57.987-14.321l9.181 32.096c5.611 19.616 28.163 28.736 45.832 18.534 17.669-10.201 21.046-34.293 6.863-48.96-11.802-12.205-22.936-23.721-23.251-24.046 15.987-12.031 29.977-26.577 41.382-43.044l30.825 17.796c2.362 1.364 4.941 2.013 7.486 2.013 5.184 0 10.227-2.691 13.004-7.503 4.142-7.175 1.684-16.349-5.49-20.49l-30.794-17.779c8.456-17.761 14.19-37.059 16.63-57.359l32.378 8.094c19.791 4.949 38.965-10.021 38.965-30.424s-19.176-35.373-38.969-30.424zm-262.031 130.424c-8.284 0-15-6.716-15-15s6.716-15 15-15 15 6.716 15 15-6.716 15-15 15zm-30-75c-30.327 0-55-24.673-55-55s24.673-55 55-55 55 24.673 55 55-24.673 55-55 55zm160-95c8.284 0 15 6.716 15 15s-6.716 15-15 15-15-6.716-15-15 6.716-15 15-15zm-60-25c-8.284 0-15-6.716-15-15s6.716-15 15-15 15 6.716 15 15-6.716 15-15 15zm60 180c-24.813 0-45-20.187-45-45s20.187-45 45-45 45 20.187 45 45-20.187 45-45 45z"/></g></g></svg>